<svg width="50" height="10" viewBox="0 0 50 10" fill="none" xmlns="http://www.w3.org/2000/svg">
<path d="M0.758523 9V0.272727H4.25284C4.89489 0.272727 5.4304 0.367898 5.85938 0.558239C6.28835 0.74858 6.6108 1.01278 6.8267 1.35085C7.04261 1.68608 7.15057 2.07244 7.15057 2.50994C7.15057 2.85085 7.08239 3.15057 6.94602 3.40909C6.80966 3.66477 6.62216 3.875 6.38352 4.03977C6.14773 4.2017 5.87784 4.31676 5.57386 4.38494V4.47017C5.90625 4.48437 6.21733 4.57812 6.5071 4.75142C6.79972 4.92472 7.03693 5.16761 7.21875 5.48011C7.40057 5.78977 7.49148 6.15909 7.49148 6.58807C7.49148 7.05114 7.37642 7.46449 7.14631 7.82812C6.91903 8.18892 6.58239 8.47443 6.13636 8.68466C5.69034 8.89489 5.14063 9 4.48722 9H0.758523ZM2.60369 7.49148H4.10795C4.62216 7.49148 4.99716 7.39347 5.23295 7.19744C5.46875 6.99858 5.58665 6.73437 5.58665 6.40483C5.58665 6.16335 5.52841 5.95028 5.41193 5.76562C5.29545 5.58097 5.12926 5.43608 4.91335 5.33097C4.70028 5.22585 4.44602 5.1733 4.15057 5.1733H2.60369V7.49148ZM2.60369 3.92472H3.97159C4.22443 3.92472 4.44886 3.88068 4.64489 3.79261C4.84375 3.7017 5 3.57386 5.11364 3.40909C5.23011 3.24432 5.28835 3.04688 5.28835 2.81676C5.28835 2.50142 5.17614 2.24716 4.9517 2.05398C4.73011 1.8608 4.41477 1.7642 4.00568 1.7642H2.60369V3.92472ZM11.6154 9.12784C10.9535 9.12784 10.381 8.98722 9.89808 8.70597C9.41797 8.42187 9.04723 8.02699 8.78587 7.52131C8.5245 7.01278 8.39382 6.4233 8.39382 5.75284C8.39382 5.0767 8.5245 4.4858 8.78587 3.98011C9.04723 3.47159 9.41797 3.0767 9.89808 2.79545C10.381 2.51136 10.9535 2.36932 11.6154 2.36932C12.2773 2.36932 12.8484 2.51136 13.3285 2.79545C13.8114 3.0767 14.1836 3.47159 14.445 3.98011C14.7063 4.4858 14.837 5.0767 14.837 5.75284C14.837 6.4233 14.7063 7.01278 14.445 7.52131C14.1836 8.02699 13.8114 8.42187 13.3285 8.70597C12.8484 8.98722 12.2773 9.12784 11.6154 9.12784ZM11.6239 7.72159C11.9251 7.72159 12.1765 7.63636 12.3782 7.46591C12.5799 7.29261 12.7319 7.05682 12.8342 6.75852C12.9393 6.46023 12.9918 6.12074 12.9918 5.74006C12.9918 5.35938 12.9393 5.01989 12.8342 4.72159C12.7319 4.4233 12.5799 4.1875 12.3782 4.0142C12.1765 3.84091 11.9251 3.75426 11.6239 3.75426C11.32 3.75426 11.0643 3.84091 10.8569 4.0142C10.6523 4.1875 10.4975 4.4233 10.3924 4.72159C10.2901 5.01989 10.239 5.35938 10.239 5.74006C10.239 6.12074 10.2901 6.46023 10.3924 6.75852C10.4975 7.05682 10.6523 7.29261 10.8569 7.46591C11.0643 7.63636 11.32 7.72159 11.6239 7.72159ZM17.8327 0.272727V9H16.0174V0.272727H17.8327ZM23.2485 2.45455V3.81818H19.3067V2.45455H23.2485ZM20.2016 0.886364H22.0169V6.98864C22.0169 7.15625 22.0425 7.28693 22.0936 7.38068C22.1448 7.47159 22.2158 7.53551 22.3067 7.57244C22.4005 7.60937 22.5084 7.62784 22.6306 7.62784C22.7158 7.62784 22.801 7.62074 22.8862 7.60653C22.9715 7.58949 23.0368 7.5767 23.0823 7.56818L23.3678 8.91903C23.2769 8.94744 23.149 8.98011 22.9843 9.01705C22.8195 9.05682 22.6192 9.08097 22.3834 9.08949C21.9459 9.10653 21.5624 9.0483 21.2328 8.91477C20.9061 8.78125 20.6519 8.57386 20.4701 8.29261C20.2882 8.01136 20.1987 7.65625 20.2016 7.22727V0.886364ZM25.1057 9V0.272727H27.9224C28.5417 0.272727 29.0588 0.392045 29.4736 0.630682C29.8912 0.866477 30.2051 1.1875 30.4153 1.59375C30.6284 2 30.7349 2.45739 30.7349 2.96591C30.7349 3.47443 30.6298 3.93324 30.4196 4.34233C30.2093 4.74858 29.8968 5.07102 29.4821 5.30966C29.0673 5.54545 28.5517 5.66335 27.9352 5.66335H25.7193V4.94744H27.9139C28.3713 4.94744 28.7505 4.86222 29.0517 4.69176C29.3528 4.51847 29.5772 4.28267 29.725 3.98438C29.8755 3.68608 29.9508 3.34659 29.9508 2.96591C29.9508 2.58523 29.8755 2.24574 29.725 1.94744C29.5772 1.64915 29.3514 1.41477 29.0474 1.24432C28.7463 1.07386 28.3642 0.988636 27.9011 0.988636H25.9025V9H25.1057ZM34.2761 9.14915C33.8812 9.14915 33.5204 9.07244 33.1937 8.91903C32.867 8.76278 32.6071 8.53835 32.4139 8.24574C32.2207 7.95028 32.1241 7.59233 32.1241 7.17188C32.1241 6.84801 32.1852 6.57528 32.3074 6.35369C32.4295 6.1321 32.6028 5.95028 32.8272 5.80824C33.0517 5.66619 33.3173 5.55398 33.6241 5.47159C33.9309 5.3892 34.269 5.32528 34.6383 5.27983C35.0048 5.23437 35.3145 5.1946 35.5673 5.16051C35.823 5.12642 36.0176 5.07244 36.1511 4.99858C36.2846 4.92472 36.3514 4.8054 36.3514 4.64062V4.48722C36.3514 4.04119 36.2179 3.69034 35.9508 3.43466C35.6866 3.17614 35.3059 3.04688 34.8088 3.04688C34.3372 3.04688 33.9522 3.15057 33.6539 3.35795C33.3585 3.56534 33.1511 3.80966 33.0318 4.09091L32.3116 3.83097C32.4593 3.47301 32.6639 3.1875 32.9253 2.97443C33.1866 2.75852 33.4792 2.60369 33.8031 2.50994C34.127 2.41335 34.4551 2.36506 34.7875 2.36506C35.0375 2.36506 35.2974 2.39773 35.5673 2.46307C35.84 2.52841 36.0929 2.64205 36.3258 2.80398C36.5588 2.96307 36.7477 3.18608 36.8926 3.47301C37.0375 3.7571 37.1099 4.1179 37.1099 4.5554V9H36.3514V7.96449H36.3045C36.2136 8.15767 36.0787 8.34517 35.8997 8.52699C35.7207 8.70881 35.4963 8.85795 35.2264 8.97443C34.9565 9.09091 34.6397 9.14915 34.2761 9.14915ZM34.3784 8.45455C34.7818 8.45455 35.1312 8.36506 35.4267 8.18608C35.7221 8.0071 35.9494 7.76989 36.1085 7.47443C36.2704 7.17614 36.3514 6.84801 36.3514 6.49006V5.54403C36.2946 5.59801 36.1994 5.64631 36.0659 5.68892C35.9352 5.73153 35.7832 5.76989 35.6099 5.80398C35.4395 5.83523 35.269 5.86222 35.0986 5.88494C34.9281 5.90767 34.7747 5.92756 34.6383 5.9446C34.269 5.99006 33.9537 6.06108 33.6923 6.15767C33.4309 6.25426 33.2307 6.38778 33.0914 6.55824C32.9522 6.72585 32.8826 6.94176 32.8826 7.20597C32.8826 7.60369 33.0247 7.91193 33.3088 8.13068C33.5929 8.34659 33.9494 8.45455 34.3784 8.45455ZM43.5254 3.89062L42.8308 4.08665C42.7626 3.89062 42.666 3.71307 42.541 3.55398C42.416 3.39489 42.2527 3.26847 42.051 3.17472C41.8521 3.08097 41.6049 3.03409 41.3095 3.03409C40.8663 3.03409 40.5027 3.1392 40.2186 3.34943C39.9345 3.55966 39.7924 3.83097 39.7924 4.16335C39.7924 4.4446 39.889 4.6733 40.0822 4.84943C40.2782 5.02273 40.5794 5.16051 40.9856 5.26278L41.9743 5.50568C42.5226 5.6392 42.9331 5.85085 43.2058 6.14062C43.4814 6.4304 43.6191 6.79403 43.6191 7.23153C43.6191 7.60085 43.5169 7.92898 43.3123 8.21591C43.1078 8.50284 42.8223 8.72869 42.4558 8.89347C42.0922 9.0554 41.6703 9.13636 41.1902 9.13636C40.551 9.13636 40.024 8.9929 39.6092 8.70597C39.1944 8.41619 38.9288 7.99858 38.8123 7.45312L39.541 7.27415C39.6348 7.66335 39.818 7.95739 40.0907 8.15625C40.3663 8.35511 40.7285 8.45455 41.1774 8.45455C41.6802 8.45455 42.0822 8.34233 42.3834 8.1179C42.6845 7.89062 42.8351 7.60653 42.8351 7.26562C42.8351 7.00142 42.747 6.77983 42.5709 6.60085C42.3947 6.41903 42.1277 6.28551 41.7697 6.20028L40.7001 5.9446C40.1319 5.80824 39.7115 5.59233 39.4388 5.29688C39.166 5.00142 39.0297 4.63494 39.0297 4.19744C39.0297 3.83665 39.1277 3.51989 39.3237 3.24716C39.5197 2.97159 39.7896 2.75568 40.1334 2.59943C40.4771 2.44318 40.8691 2.36506 41.3095 2.36506C41.9089 2.36506 42.3876 2.50142 42.7456 2.77415C43.1064 3.04403 43.3663 3.41619 43.5254 3.89062ZM49.6777 3.89062L48.9831 4.08665C48.915 3.89062 48.8184 3.71307 48.6934 3.55398C48.5684 3.39489 48.405 3.26847 48.2033 3.17472C48.0044 3.08097 47.7573 3.03409 47.4618 3.03409C47.0187 3.03409 46.655 3.1392 46.3709 3.34943C46.0868 3.55966 45.9448 3.83097 45.9448 4.16335C45.9448 4.4446 46.0414 4.6733 46.2346 4.84943C46.4306 5.02273 46.7317 5.16051 47.138 5.26278L48.1266 5.50568C48.6749 5.6392 49.0854 5.85085 49.3581 6.14062C49.6337 6.4304 49.7715 6.79403 49.7715 7.23153C49.7715 7.60085 49.6692 7.92898 49.4647 8.21591C49.2601 8.50284 48.9746 8.72869 48.6081 8.89347C48.2445 9.0554 47.8226 9.13636 47.3425 9.13636C46.7033 9.13636 46.1763 8.9929 45.7615 8.70597C45.3468 8.41619 45.0812 7.99858 44.9647 7.45312L45.6934 7.27415C45.7871 7.66335 45.9704 7.95739 46.2431 8.15625C46.5187 8.35511 46.8809 8.45455 47.3297 8.45455C47.8326 8.45455 48.2346 8.34233 48.5357 8.1179C48.8368 7.89062 48.9874 7.60653 48.9874 7.26562C48.9874 7.00142 48.8993 6.77983 48.7232 6.60085C48.5471 6.41903 48.28 6.28551 47.9221 6.20028L46.8525 5.9446C46.2843 5.80824 45.8638 5.59233 45.5911 5.29688C45.3184 5.00142 45.182 4.63494 45.182 4.19744C45.182 3.83665 45.28 3.51989 45.476 3.24716C45.6721 2.97159 45.9419 2.75568 46.2857 2.59943C46.6294 2.44318 47.0215 2.36506 47.4618 2.36506C48.0613 2.36506 48.54 2.50142 48.8979 2.77415C49.2587 3.04403 49.5187 3.41619 49.6777 3.89062Z" fill="white"/>
</svg>
